{"title":"The.Man.From.Laramie.1955.BR.(FixAR).720p.x264.AC3.[FrOnkY]","uid":10429181,"size":4902498159,"categoryP":"video","categoryS":"hd___movies","magnet":"?xt=urn:btih:782f62907e0fede7a07a97deab78e1ac302d1251&amp;dn=The.Man.From.Laramie.1955.BR.%28FixAR%29.720p.x264.AC3.%5BFrOnkY%5D&amp;tr=udp%3A%2F%2Ftracker.openbittorrent.com%3A80&amp;tr=udp%3A%2F%2Fopen.demonii.com%3A1337&amp;tr=udp%3A%2F%2Ftracker.coppersurfer.tk%3A6969&amp;tr=udp%3A%2F%2Fexodus.desync.com%3A6969","seeders":1,"leechers":0,"uploader":"HDmEntEs","files":-1,"time":1403741895,"description":"THE MAN You'll Never Forget! \n\n\nThe.Man.From.Laramie.1955.BR.(FixAR).720p.x264.AC3.[FrOnkY].mkv\n\nFormat                                   : Matroska\nFormat version                           : Version 4 / Version 2\nFile size                                : 4.57 GiB\nDuration                                 : 1h 42mn\nOverall bit rate                         : 6 391 Kbps\nWriting application                      : mkvmerge v6.9.1 ('Blue Panther') 32bit built on Apr 18 2014 18:15:44\nWriting library                          : libebml v1.3.0 + libmatroska v1.4.1\nAttachment                               : Yes / Yes / Yes / Yes / Yes / Yes\n\nVideo\nID                                       : 1\nFormat                                   : AVC\nFormat/Info                              : Advanced Video Codec\nFormat profile                           : &lt;a class=&quot;__cf_email__&quot; href=&quot;/cdn-cgi/l/email-protection&quot; data-cfemail=&quot;7b33121c133b374f554a&quot;&gt;[email&amp;#160;protected]&lt;/a&gt;&lt;script cf-hash='f9e31' type=&quot;text/javascript&quot;&gt;\n/* &lt;![CDATA[ */!function(){try{var t=&quot;currentScript&quot;in document?document.currentScript:function(){for(var t=document.getElementsByTagName(&quot;script&quot;),e=t.length;e--;)if(t[e].getAttribute(&quot;cf-hash&quot;))return t[e]}();if(t&amp;&amp;t.previousSibling){var e,r,n,i,c=t.previousSibling,a=c.getAttribute(&quot;data-cfemail&quot;);if(a){for(e=&quot;&quot;,r=parseInt(a.substr(0,2),16),n=2;a.length-n;n+=2)i=parseInt(a.substr(n,2),16)^r,e+=String.fromCharCode(i);e=document.createTextNode(e),c.parentNode.replaceChild(e,c)}}}catch(u){}}();/* ]]&gt; */&lt;/script&gt;\nFormat settings, CABAC                   : Yes\nFormat settings, ReFrames                : 12 frames\nCodec ID                                 : V_MPEG4/ISO/AVC\nDuration                                 : 1h 42mn\nBit rate                                 : 5 555 Kbps\nWidth                                    : 1 280 pixels\nHeight                                   : 516 pixels\nDisplay aspect ratio                     : 2.481\nFrame rate mode                          : Constant\nFrame rate                               : 23.976 fps\nColor space                              : YUV\nChroma subsampling                       : 4:2:0\nBit depth                                : 8 bits\nScan type                                : Progressive\nBits/(Pixel*Frame)                       : 0.351\nStream size                              : 3.88 GiB (85%)\nWriting library                          : x264 core 142 r2389 956c8d8\nLanguage                                 : English\nDefault                                  : Yes\nForced                                   : No\n\nAudio #1\nID                                       : 2\nFormat                                   : AC-3\nFormat/Info                              : Audio Coding 3\nMode extension                           : CM (complete main)\nFormat settings, Endianness              : Big\nCodec ID                                 : A_AC3\nDuration                                 : 1h 42mn\nBit rate mode                            : Constant\nBit rate                                 : 640 Kbps\nChannel(s)                               : 6 channels\nChannel positions                        : Front: L C R, Side: L R, LFE\nSampling rate                            : 48.0 KHz\nBit depth                                : 16 bits\nStream size                              : 468 MiB (10%)\nLanguage                                 : English\nDefault                                  : Yes\nForced                                   : No\n\nAudio #2\nID                                       : 3\nFormat                                   : AC-3\nFormat/Info                              : Audio Coding 3\nMode extension                           : CM (complete main)\nFormat settings, Endianness              : Big\nCodec ID                                 : A_AC3\nDuration                                 : 1h 42mn\nBit rate mode                            : Constant\nBit rate                                 : 192 Kbps\nChannel(s)                               : 2 channels\nChannel positions                        : Front: L R\nSampling rate                            : 48.0 KHz\nBit depth                                : 16 bits\nStream size                              : 140 MiB (3%)\nLanguage                                 : Spanish\nDefault                                  : No\nForced                                   : No\n\nText #1\nID                                       : 4\nFormat                                   : UTF-8\nCodec ID                                 : S_TEXT/UTF8\nCodec ID/Info                            : UTF-8 Plain Text\nLanguage                                 : Spanish\nDefault                                  : Yes\nForced                                   : No\n\nText #2\nID                                       : 5\nFormat                                   : UTF-8\nCodec ID                                 : S_TEXT/UTF8\nCodec ID/Info                            : UTF-8 Plain Text\nTitle                                    : for\nLanguage                                 : Spanish\nDefault                                  : No\nForced                                   : No\n\nText #3\nID                                       : 6\nFormat                                   : UTF-8\nCodec ID                                 : S_TEXT/UTF8\nCodec ID/Info                            : UTF-8 Plain Text\nLanguage                                 : English\nDefault                                  : No\nForced                                   : No\n\nText #4\nID                                       : 7\nFormat                                   : UTF-8\nCodec ID                                 : S_TEXT/UTF8\nCodec ID/Info                            : UTF-8 Plain Text\nLanguage                                 : French\nDefault                                  : No\nForced                                   : No\n\nMenu\n00:00:00.000                             : en:Start\n00:01:31.800                             : en:A Reminder\n00:05:49.880                             : en:The Owner\n00:13:23.600                             : en:A Lesson\n00:22:38.600                             : en:Starting Something\n00:25:31.480                             : en:Alec Waggoman\n00:28:10.040                             : en:&quot;I Love You&quot;\n00:29:47.920                             : en:Kate Canaday\n00:32:36.600                             : en:$600\n00:36:11.600                             : en:Pushing Vic\n00:41:14.600                             : en:Chris Boldt\n00:42:56.800                             : en:Sheriff Quigby\n00:44:04.760                             : en:Knife Fight\n00:45:47.920                             : en:Pueblo Wedding\n00:47:55.480                             : en:&quot;Chris Boldt's Dead&quot;\n00:49:02.600                             : en:The Same Dream\n00:51:59.760                             : en:Kate's Offer\n00:56:30.480                             : en:I'm Going Blind\n01:00:30.200                             : en:Ambushed\n01:02:15.600                             : en:Eye For An Eye\n01:05:18.840                             : en:Dave Goes Crazy\n01:15:34.600                             : en:&quot;Dave Waggoman's Dead&quot;\n01:19:00.080                             : en:&quot;I Didn't Do It&quot;\n01:20:25.320                             : en:Missing Wagon\n01:25:03.600                             : en:&quot;I Lied To You&quot;\n01:27:37.000                             : en:&quot;Somebody Pushed Him&quot;\n01:31:37.600                             : en:The Man In His Dream\n01:36:34.560                             : en:His Brother Avenged\n\n\nOAR - FixAR\n &lt;a href=&quot;\nhttps://box.jisko.net/i/1569ea99.png&quot; rel=&quot;nofollow&quot; target=&quot;_NEW&quot;&gt;\nhttps://box.jisko.net/i/1569ea99.png&lt;/a&gt; &lt;a href=&quot;\nhttps://box.jisko.net/i/9f77c4d4.png&quot; rel=&quot;nofollow&quot; target=&quot;_NEW&quot;&gt;\nhttps://box.jisko.net/i/9f77c4d4.png&lt;/a&gt;\n\nSCREENS\n &lt;a href=&quot;\nhttps://box.jisko.net/i/bbe5cdb7.png&quot; rel=&quot;nofollow&quot; target=&quot;_NEW&quot;&gt;\nhttps://box.jisko.net/i/bbe5cdb7.png&lt;/a&gt;\n &lt;a href=&quot;\nhttps://box.jisko.net/i/4a441944.png&quot; rel=&quot;nofollow&quot; target=&quot;_NEW&quot;&gt;\nhttps://box.jisko.net/i/4a441944.png&lt;/a&gt;\n &lt;a href=&quot;\nhttps://box.jisko.net/i/e37ff585.png&quot; rel=&quot;nofollow&quot; target=&quot;_NEW&quot;&gt;\nhttps://box.jisko.net/i/e37ff585.png&lt;/a&gt;","torrent":{"xt":"urn:btih:782f62907e0fede7a07a97deab78e1ac302d1251","amp;dn":"The.Man.From.Laramie.1955.BR.%28FixAR%29.720p.x264.AC3.%5BFrOnkY%5D","amp;tr":["udp%3A%2F%2Ftracker.openbittorrent.com%3A80","udp%3A%2F%2Fopen.demonii.com%3A1337","udp%3A%2F%2Ftracker.coppersurfer.tk%3A6969","udp%3A%2F%2Fexodus.desync.com%3A6969"],"infoHash":"782f62907e0fede7a07a97deab78e1ac302d1251","infoHashBuffer":{"type":"Buffer","data":[120,47,98,144,126,15,237,231,160,122,151,222,171,120,225,172,48,45,18,81]},"announce":[],"urlList":[]}}